<svg id="visual" viewBox="0 0 900 600" width="900" height="600" xmlns="http://www.w3.org/2000/svg" xmlns:xlink="http://www.w3.org/1999/xlink" version="1.1"><rect x="0" y="0" width="900" height="600" fill="#34A1FE"></rect><defs><linearGradient id="grad1_0" x1="33.3%" y1="0%" x2="100%" y2="100%"><stop offset="20%" stop-color="#34a1fe" stop-opacity="1"></stop><stop offset="80%" stop-color="#34a1fe" stop-opacity="1"></stop></linearGradient></defs><defs><linearGradient id="grad2_0" x1="0%" y1="0%" x2="66.7%" y2="100%"><stop offset="20%" stop-color="#34a1fe" stop-opacity="1"></stop><stop offset="80%" stop-color="#34a1fe" stop-opacity="1"></stop></linearGradient></defs><g transform="translate(900, 0)"><path d="M0 270.4C-39 270.6 -77.9 270.7 -103.5 249.8C-129.1 229 -141.3 187.1 -158.4 158.4C-175.5 129.7 -197.6 114.1 -217.1 89.9C-236.6 65.7 -253.5 32.9 -270.4 0L0 0Z" fill="#3468FE"></path></g><g transform="translate(0, 600)"><path d="M0 -270.4C34.8 -266.3 69.6 -262.2 103.5 -249.8C137.3 -237.5 170.3 -216.9 188.8 -188.8C207.3 -160.7 211.5 -125 222.7 -92.2C233.9 -59.5 252.1 -29.7 270.4 0L0 0Z" fill="#3468FE"></path></g></svg>