<svg id="visual" viewBox="0 0 900 600" width="900" height="600" xmlns="http://www.w3.org/2000/svg" xmlns:xlink="http://www.w3.org/1999/xlink" version="1.1"><rect x="0" y="0" width="900" height="600" fill="#34A1FE"></rect><defs><linearGradient id="grad1_0" x1="33.3%" y1="100%" x2="100%" y2="0%"><stop offset="20%" stop-color="#34a1fe" stop-opacity="1"></stop><stop offset="80%" stop-color="#34a1fe" stop-opacity="1"></stop></linearGradient></defs><defs><linearGradient id="grad2_0" x1="0%" y1="100%" x2="66.7%" y2="0%"><stop offset="20%" stop-color="#34a1fe" stop-opacity="1"></stop><stop offset="80%" stop-color="#34a1fe" stop-opacity="1"></stop></linearGradient></defs><g transform="translate(900, 600)"><path d="M-270.4 0C-272 -40.8 -273.5 -81.6 -249.8 -103.5C-226.1 -125.4 -177.2 -128.4 -150.6 -150.6C-124 -172.8 -119.7 -214.3 -98.3 -237.4C-77 -260.6 -38.5 -265.5 0 -270.4L0 0Z" fill="#3468FE"></path></g><g transform="translate(0, 0)"><path d="M270.4 0C266 32.9 261.5 65.8 249.8 103.5C238.1 141.1 219.1 183.6 183.1 183.1C147.2 182.7 94.2 139.5 60.8 146.9C27.5 154.3 13.7 212.4 0 270.4L0 0Z" fill="#3468FE"></path></g></svg>