<svg id="visual" viewBox="0 0 900 600" width="900" height="600" xmlns="http://www.w3.org/2000/svg" xmlns:xlink="http://www.w3.org/1999/xlink" version="1.1"><rect x="0" y="0" width="900" height="600" fill="#34A1FE"></rect><defs><linearGradient id="grad1_0" x1="33.3%" y1="0%" x2="100%" y2="100%"><stop offset="20%" stop-color="#34a1fe" stop-opacity="1"></stop><stop offset="80%" stop-color="#34a1fe" stop-opacity="1"></stop></linearGradient></defs><defs><linearGradient id="grad2_0" x1="0%" y1="0%" x2="66.7%" y2="100%"><stop offset="20%" stop-color="#34a1fe" stop-opacity="1"></stop><stop offset="80%" stop-color="#34a1fe" stop-opacity="1"></stop></linearGradient></defs><g transform="translate(900, 0)"><path d="M0 243.4C-30.8 239.5 -61.7 235.7 -93.1 224.8C-124.6 214 -156.7 196.1 -169 169C-181.3 141.9 -173.8 105.5 -182.9 75.8C-192 46.1 -217.7 23 -243.4 0L0 0Z" fill="#3468FE"></path></g><g transform="translate(0, 600)"><path d="M0 -243.4C21 -209.6 42.1 -175.9 67.7 -163.5C93.4 -151.2 123.6 -160.2 152.7 -152.7C181.9 -145.3 209.9 -121.3 224.8 -93.1C239.8 -64.9 241.6 -32.5 243.4 0L0 0Z" fill="#3468FE"></path></g></svg>