<svg id="visual" viewBox="0 0 1000 540" width="1000" height="540" xmlns="http://www.w3.org/2000/svg" xmlns:xlink="http://www.w3.org/1999/xlink" version="1.1"><rect x="0" y="0" width="1000" height="540" fill="#34A1FE"></rect><defs><linearGradient id="grad1_0" x1="46%" y1="100%" x2="100%" y2="0%"><stop offset="12.962962962962964%" stop-color="#34a1fe" stop-opacity="1"></stop><stop offset="87.03703703703704%" stop-color="#34a1fe" stop-opacity="1"></stop></linearGradient></defs><defs><linearGradient id="grad2_0" x1="0%" y1="100%" x2="54%" y2="0%"><stop offset="12.962962962962964%" stop-color="#34a1fe" stop-opacity="1"></stop><stop offset="87.03703703703704%" stop-color="#34a1fe" stop-opacity="1"></stop></linearGradient></defs><g transform="translate(1000, 540)"><path d="M-270 0C-256.4 -31.9 -242.7 -63.8 -230 -95.3C-217.4 -126.8 -205.7 -158 -185.3 -185.3C-164.8 -212.6 -135.7 -236 -103.3 -249.4C-71 -262.9 -35.5 -266.5 0 -270L0 0Z" fill="#3468FE"></path></g><g transform="translate(0, 0)"><path d="M270 0C264.1 34 258.3 68 246.7 102.2C235.1 136.3 217.7 170.7 190.9 190.9C164.1 211.2 127.9 217.4 94.5 228.2C61.1 239 30.6 254.5 0 270L0 0Z" fill="#3468FE"></path></g></svg>