<svg id="visual" viewBox="0 0 900 600" width="900" height="600" xmlns="http://www.w3.org/2000/svg" xmlns:xlink="http://www.w3.org/1999/xlink" version="1.1"><rect x="0" y="0" width="900" height="600" fill="#046bc5"></rect><defs><linearGradient id="grad1_0" x1="33.3%" y1="100%" x2="100%" y2="0%"><stop offset="20%" stop-color="#046bc5" stop-opacity="1"></stop><stop offset="80%" stop-color="#046bc5" stop-opacity="1"></stop></linearGradient></defs><defs><linearGradient id="grad2_0" x1="0%" y1="100%" x2="66.7%" y2="0%"><stop offset="20%" stop-color="#046bc5" stop-opacity="1"></stop><stop offset="80%" stop-color="#046bc5" stop-opacity="1"></stop></linearGradient></defs><g transform="translate(900, 600)"><path d="M-297.5 0C-289.6 -51.9 -281.7 -103.7 -257.6 -148.7C-233.5 -193.7 -193.1 -231.8 -147.5 -255.5C-101.9 -279.1 -50.9 -288.3 0 -297.5L0 0Z" fill="#152fb3"></path></g><g transform="translate(0, 0)"><path d="M297.5 0C280.9 46.7 264.3 93.3 241.6 139.5C218.9 185.7 190 231.4 148.7 257.6C107.4 283.9 53.7 290.7 0 297.5L0 0Z" fill="#152fb3"></path></g></svg>