<svg id="visual" viewBox="0 0 900 600" width="900" height="600" xmlns="http://www.w3.org/2000/svg" xmlns:xlink="http://www.w3.org/1999/xlink" version="1.1"><rect x="0" y="0" width="900" height="600" fill="#046bc5"></rect><defs><linearGradient id="grad1_0" x1="33.3%" y1="100%" x2="100%" y2="0%"><stop offset="20%" stop-color="#046bc5" stop-opacity="1"></stop><stop offset="80%" stop-color="#046bc5" stop-opacity="1"></stop></linearGradient></defs><defs><linearGradient id="grad2_0" x1="0%" y1="100%" x2="66.7%" y2="0%"><stop offset="20%" stop-color="#046bc5" stop-opacity="1"></stop><stop offset="80%" stop-color="#046bc5" stop-opacity="1"></stop></linearGradient></defs><g transform="translate(900, 600)"><path d="M-324.5 0C-316.9 -58.3 -309.3 -116.6 -281 -162.2C-252.7 -207.9 -203.8 -240.9 -153.5 -265.9C-103.2 -290.8 -51.6 -307.7 0 -324.5L0 0Z" fill="#152fb3"></path></g><g transform="translate(0, 0)"><path d="M324.5 0C276.7 33.7 228.9 67.5 207.8 120C186.8 172.5 192.4 243.8 162.2 281C132.1 318.2 66 321.4 0 324.5L0 0Z" fill="#152fb3"></path></g></svg>