<svg id="visual" viewBox="0 0 1000 540" width="1000" height="540" xmlns="http://www.w3.org/2000/svg" xmlns:xlink="http://www.w3.org/1999/xlink" version="1.1"><rect x="0" y="0" width="1000" height="540" fill="#34A1FE"></rect><defs><linearGradient id="grad1_0" x1="46%" y1="0%" x2="100%" y2="100%"><stop offset="12.962962962962964%" stop-color="#34a1fe" stop-opacity="1"></stop><stop offset="87.03703703703704%" stop-color="#34a1fe" stop-opacity="1"></stop></linearGradient></defs><defs><linearGradient id="grad2_0" x1="0%" y1="0%" x2="54%" y2="100%"><stop offset="12.962962962962964%" stop-color="#34a1fe" stop-opacity="1"></stop><stop offset="87.03703703703704%" stop-color="#34a1fe" stop-opacity="1"></stop></linearGradient></defs><g transform="translate(1000, 0)"><path d="M0 270C-31.9 256.4 -63.8 242.7 -95.3 230C-126.8 217.4 -158 205.7 -185.3 185.3C-212.6 164.8 -236 135.7 -249.4 103.3C-262.9 71 -266.5 35.5 -270 0L0 0Z" fill="#3468FE"></path></g><g transform="translate(0, 540)"><path d="M0 -270C34 -264.1 68 -258.3 102.2 -246.7C136.3 -235.1 170.7 -217.7 190.9 -190.9C211.2 -164.1 217.4 -127.9 228.2 -94.5C239 -61.1 254.5 -30.6 270 0L0 0Z" fill="#3468FE"></path></g></svg>