<svg id="visual" viewBox="0 0 900 600" width="900" height="600" xmlns="http://www.w3.org/2000/svg" xmlns:xlink="http://www.w3.org/1999/xlink" version="1.1"><rect x="0" y="0" width="900" height="600" fill="#34A1FE"></rect><defs><linearGradient id="grad1_0" x1="33.3%" y1="0%" x2="100%" y2="100%"><stop offset="20%" stop-color="#34a1fe" stop-opacity="1"></stop><stop offset="80%" stop-color="#34a1fe" stop-opacity="1"></stop></linearGradient></defs><defs><linearGradient id="grad2_0" x1="0%" y1="0%" x2="66.7%" y2="100%"><stop offset="20%" stop-color="#34a1fe" stop-opacity="1"></stop><stop offset="80%" stop-color="#34a1fe" stop-opacity="1"></stop></linearGradient></defs><g transform="translate(900, 0)"><path d="M0 432.7C-63.7 434.3 -127.5 436 -165.6 399.7C-203.6 363.5 -216.1 289.3 -243.2 243.2C-270.4 197.2 -312.4 179.4 -346.5 143.5C-380.5 107.7 -406.6 53.8 -432.7 0L0 0Z" fill="#3468FE"></path></g><g transform="translate(0, 600)"><path d="M0 -432.7C55.9 -416.2 111.9 -399.8 153.5 -370.5C195.1 -341.2 222.3 -299.1 265.9 -265.9C309.4 -232.7 369.2 -208.4 399.7 -165.6C430.2 -122.7 431.5 -61.4 432.7 0L0 0Z" fill="#3468FE"></path></g></svg>