<svg id="visual" viewBox="0 0 900 600" width="900" height="600" xmlns="http://www.w3.org/2000/svg" xmlns:xlink="http://www.w3.org/1999/xlink" version="1.1"><rect x="0" y="0" width="900" height="600" fill="#34A1FE"></rect><defs><linearGradient id="grad1_0" x1="33.3%" y1="100%" x2="100%" y2="0%"><stop offset="20%" stop-color="#34a1fe" stop-opacity="1"></stop><stop offset="80%" stop-color="#34a1fe" stop-opacity="1"></stop></linearGradient></defs><defs><linearGradient id="grad2_0" x1="0%" y1="100%" x2="66.7%" y2="0%"><stop offset="20%" stop-color="#34a1fe" stop-opacity="1"></stop><stop offset="80%" stop-color="#34a1fe" stop-opacity="1"></stop></linearGradient></defs><g transform="translate(900, 600)"><path d="M-324.5 0C-319 -61.9 -313.4 -123.7 -281 -162.2C-248.6 -200.8 -189.3 -215.9 -138 -239C-86.7 -262.2 -43.3 -293.3 0 -324.5L0 0Z" fill="#3468FE"></path></g><g transform="translate(0, 0)"><path d="M324.5 0C286.4 39.3 248.3 78.7 226 130.5C203.8 182.3 197.3 246.6 162.2 281C127.2 315.4 63.6 320 0 324.5L0 0Z" fill="#3468FE"></path></g></svg>