<svg id="visual" viewBox="0 0 900 600" width="900" height="600" xmlns="http://www.w3.org/2000/svg" xmlns:xlink="http://www.w3.org/1999/xlink" version="1.1"><rect x="0" y="0" width="900" height="600" fill="#046bc5"></rect><defs><linearGradient id="grad1_0" x1="33.3%" y1="0%" x2="100%" y2="100%"><stop offset="20%" stop-color="#046bc5" stop-opacity="1"></stop><stop offset="80%" stop-color="#046bc5" stop-opacity="1"></stop></linearGradient></defs><defs><linearGradient id="grad2_0" x1="0%" y1="0%" x2="66.7%" y2="100%"><stop offset="20%" stop-color="#046bc5" stop-opacity="1"></stop><stop offset="80%" stop-color="#046bc5" stop-opacity="1"></stop></linearGradient></defs><g transform="translate(900, 0)"><path d="M0 216.3C-30.2 197.9 -60.5 179.4 -94.5 163.7C-128.5 148 -166.4 135 -187.3 108.2C-208.3 81.3 -212.3 40.7 -216.3 0L0 0Z" fill="#152fb3"></path></g><g transform="translate(0, 600)"><path d="M0 -216.3C29.7 -196.9 59.4 -177.6 93.5 -161.9C127.6 -146.3 166.1 -134.5 187.3 -108.2C208.6 -81.8 212.4 -40.9 216.3 0L0 0Z" fill="#152fb3"></path></g></svg>