<svg id="visual" viewBox="0 0 900 600" width="900" height="600" xmlns="http://www.w3.org/2000/svg" xmlns:xlink="http://www.w3.org/1999/xlink" version="1.1"><rect x="0" y="0" width="900" height="600" fill="#0074da"></rect><path d="M0 84L25 80.8C50 77.7 100 71.3 150 64C200 56.7 250 48.3 300 52C350 55.7 400 71.3 450 71.8C500 72.3 550 57.7 600 58.7C650 59.7 700 76.3 750 78.2C800 80 850 67 875 60.5L900 54L900 0L875 0C850 0 800 0 750 0C700 0 650 0 600 0C550 0 500 0 450 0C400 0 350 0 300 0C250 0 200 0 150 0C100 0 50 0 25 0L0 0Z" fill="#fff" stroke-linecap="round" stroke-linejoin="miter"></path></svg>