<svg id="visual" viewBox="0 0 900 600" width="900" height="600" xmlns="http://www.w3.org/2000/svg" xmlns:xlink="http://www.w3.org/1999/xlink" version="1.1"><rect x="0" y="0" width="900" height="600" fill="#046bc5"></rect><path d="M0 38L25 47.2C50 56.3 100 74.7 150 83.8C200 93 250 93 300 93C350 93 400 93 450 84.8C500 76.7 550 60.3 600 58.8C650 57.3 700 70.7 750 74.3C800 78 850 72 875 69L900 66L900 0L875 0C850 0 800 0 750 0C700 0 650 0 600 0C550 0 500 0 450 0C400 0 350 0 300 0C250 0 200 0 150 0C100 0 50 0 25 0L0 0Z" fill="#fff" stroke-linecap="round" stroke-linejoin="miter"></path></svg>